<?xml version="1.0" standalone="no"?><svg xmlns="http://www.w3.org/2000/svg" viewBox="0 0 1440 320"><path fill="#00cba9" fill-opacity="1" d="M0,96L21.8,117.3C43.6,139,87,181,131,202.7C174.5,224,218,224,262,218.7C305.5,213,349,203,393,176C436.4,149,480,107,524,85.3C567.3,64,611,64,655,85.3C698.2,107,742,149,785,186.7C829.1,224,873,256,916,245.3C960,235,1004,181,1047,160C1090.9,139,1135,149,1178,133.3C1221.8,117,1265,75,1309,64C1352.7,53,1396,75,1418,85.3L1440,96L1440,320L1418.2,320C1396.4,320,1353,320,1309,320C1265.5,320,1222,320,1178,320C1134.5,320,1091,320,1047,320C1003.6,320,960,320,916,320C872.7,320,829,320,785,320C741.8,320,698,320,655,320C610.9,320,567,320,524,320C480,320,436,320,393,320C349.1,320,305,320,262,320C218.2,320,175,320,131,320C87.3,320,44,320,22,320L0,320Z"></path></svg>